<?xml version="1.0" encoding="UTF-8" standalone="no"?>
<!DOCTYPE svg PUBLIC "-//W3C//DTD SVG 1.1//EN"
 "http://www.w3.org/Graphics/SVG/1.1/DTD/svg11.dtd">
<!-- Generated by graphviz version 12.2.1 (20241206.2353)
 -->
<!-- Title: G Pages: 1 -->
<svg width="623pt" height="314pt"
 viewBox="0.00 0.00 622.50 314.00" xmlns="http://www.w3.org/2000/svg" xmlns:xlink="http://www.w3.org/1999/xlink">
<g id="graph0" class="graph" transform="scale(1 1) rotate(0) translate(4 310)">
<title>G</title>
<polygon fill="white" stroke="none" points="-4,4 -4,-310 618.5,-310 618.5,4 -4,4"/>
<!-- op_0 -->
<g id="node1" class="node">
<title>op_0</title>
<ellipse fill="none" stroke="black" cx="486.75" cy="-152" rx="18" ry="18"/>
<text text-anchor="middle" x="486.75" y="-146.95" font-family="Times,serif" font-size="14.00">+</text>
</g>
<!-- 0 -->
<g id="node2" class="node">
<title>0</title>
<polygon fill="none" stroke="black" points="540.75,-123.25 540.75,-180.75 614.5,-180.75 614.5,-123.25 540.75,-123.25"/>
<text text-anchor="start" x="548.75" y="-163.45" font-family="Times,serif" font-size="14.00">val 100.17</text>
<text text-anchor="start" x="548.75" y="-146.95" font-family="Times,serif" font-size="14.00">grad: 0.00</text>
<text text-anchor="middle" x="577.62" y="-130.45" font-family="Times,serif" font-size="14.00">op: +</text>
</g>
<!-- op_0&#45;&gt;0 -->
<g id="edge1" class="edge">
<title>op_0&#45;&gt;0</title>
<path fill="none" stroke="black" d="M504.89,-152C511.9,-152 520.4,-152 529.05,-152"/>
<polygon fill="black" stroke="black" points="528.9,-155.5 538.9,-152 528.9,-148.5 528.9,-155.5"/>
</g>
<!-- op_1 -->
<g id="node3" class="node">
<title>op_1</title>
<ellipse fill="none" stroke="black" cx="305" cy="-191" rx="18" ry="18"/>
<text text-anchor="middle" x="305" y="-185.95" font-family="Times,serif" font-size="14.00">*</text>
</g>
<!-- 1 -->
<g id="node4" class="node">
<title>1</title>
<polygon fill="none" stroke="black" points="359,-162.25 359,-219.75 432.75,-219.75 432.75,-162.25 359,-162.25"/>
<text text-anchor="start" x="367" y="-202.45" font-family="Times,serif" font-size="14.00">val 100.00</text>
<text text-anchor="start" x="367" y="-185.95" font-family="Times,serif" font-size="14.00">grad: 0.00</text>
<text text-anchor="middle" x="395.88" y="-169.45" font-family="Times,serif" font-size="14.00">op: *</text>
</g>
<!-- op_1&#45;&gt;1 -->
<g id="edge2" class="edge">
<title>op_1&#45;&gt;1</title>
<path fill="none" stroke="black" d="M323.14,-191C330.15,-191 338.65,-191 347.3,-191"/>
<polygon fill="black" stroke="black" points="347.15,-194.5 357.15,-191 347.15,-187.5 347.15,-194.5"/>
</g>
<!-- 1&#45;&gt;op_0 -->
<g id="edge6" class="edge">
<title>1&#45;&gt;op_0</title>
<path fill="none" stroke="black" d="M433.02,-175.14C441.88,-171.25 451.19,-167.17 459.48,-163.53"/>
<polygon fill="black" stroke="black" points="460.88,-166.74 468.63,-159.51 458.06,-160.33 460.88,-166.74"/>
</g>
<!-- op_2 -->
<g id="node5" class="node">
<title>op_2</title>
<ellipse fill="none" stroke="black" cx="125.5" cy="-255" rx="18" ry="18"/>
<text text-anchor="middle" x="125.5" y="-249.95" font-family="Times,serif" font-size="14.00">+</text>
</g>
<!-- 2 -->
<g id="node6" class="node">
<title>2</title>
<polygon fill="none" stroke="black" points="179.5,-226.25 179.5,-283.75 251,-283.75 251,-226.25 179.5,-226.25"/>
<text text-anchor="start" x="187.5" y="-266.45" font-family="Times,serif" font-size="14.00">val 10.00</text>
<text text-anchor="start" x="187.5" y="-249.95" font-family="Times,serif" font-size="14.00">grad: 0.00</text>
<text text-anchor="middle" x="215.25" y="-233.45" font-family="Times,serif" font-size="14.00">op: +</text>
</g>
<!-- op_2&#45;&gt;2 -->
<g id="edge3" class="edge">
<title>op_2&#45;&gt;2</title>
<path fill="none" stroke="black" d="M143.84,-255C150.85,-255 159.32,-255 167.91,-255"/>
<polygon fill="black" stroke="black" points="167.65,-258.5 177.65,-255 167.65,-251.5 167.65,-258.5"/>
</g>
<!-- 2&#45;&gt;op_1 -->
<g id="edge7" class="edge">
<title>2&#45;&gt;op_1</title>
<path fill="none" stroke="black" d="M251.44,-229.34C261.38,-222.08 271.95,-214.38 280.97,-207.79"/>
<polygon fill="black" stroke="black" points="282.83,-210.77 288.85,-202.05 278.7,-205.12 282.83,-210.77"/>
</g>
<!-- 3 -->
<g id="node7" class="node">
<title>3</title>
<polygon fill="none" stroke="black" points="0,-264.5 0,-305.5 71.5,-305.5 71.5,-264.5 0,-264.5"/>
<text text-anchor="start" x="8" y="-288.2" font-family="Times,serif" font-size="14.00">val 5.00</text>
<text text-anchor="middle" x="35.75" y="-271.7" font-family="Times,serif" font-size="14.00">grad: 0.00</text>
</g>
<!-- 3&#45;&gt;op_2 -->
<g id="edge8" class="edge">
<title>3&#45;&gt;op_2</title>
<path fill="none" stroke="black" d="M71.94,-272.97C80.49,-270.05 89.51,-266.96 97.61,-264.19"/>
<polygon fill="black" stroke="black" points="98.55,-267.57 106.88,-261.02 96.28,-260.95 98.55,-267.57"/>
</g>
<!-- 4 -->
<g id="node8" class="node">
<title>4</title>
<polygon fill="none" stroke="black" points="0,-204.5 0,-245.5 71.5,-245.5 71.5,-204.5 0,-204.5"/>
<text text-anchor="start" x="8" y="-228.2" font-family="Times,serif" font-size="14.00">val 5.00</text>
<text text-anchor="middle" x="35.75" y="-211.7" font-family="Times,serif" font-size="14.00">grad: 0.00</text>
</g>
<!-- 4&#45;&gt;op_2 -->
<g id="edge9" class="edge">
<title>4&#45;&gt;op_2</title>
<path fill="none" stroke="black" d="M71.94,-237.03C80.49,-239.95 89.51,-243.04 97.61,-245.81"/>
<polygon fill="black" stroke="black" points="96.28,-249.05 106.88,-248.98 98.55,-242.43 96.28,-249.05"/>
</g>
<!-- 5 -->
<g id="node9" class="node">
<title>5</title>
<polygon fill="none" stroke="black" points="179.5,-166.5 179.5,-207.5 251,-207.5 251,-166.5 179.5,-166.5"/>
<text text-anchor="start" x="187.5" y="-190.2" font-family="Times,serif" font-size="14.00">val 10.00</text>
<text text-anchor="middle" x="215.25" y="-173.7" font-family="Times,serif" font-size="14.00">grad: 0.00</text>
</g>
<!-- 5&#45;&gt;op_1 -->
<g id="edge10" class="edge">
<title>5&#45;&gt;op_1</title>
<path fill="none" stroke="black" d="M251.44,-188.6C259.45,-188.97 267.86,-189.35 275.55,-189.7"/>
<polygon fill="black" stroke="black" points="275.21,-193.19 285.36,-190.15 275.53,-186.2 275.21,-193.19"/>
</g>
<!-- op_6 -->
<g id="node10" class="node">
<title>op_6</title>
<ellipse fill="none" stroke="black" cx="305" cy="-114" rx="18" ry="18"/>
<text text-anchor="middle" x="305" y="-108.95" font-family="Times,serif" font-size="14.00">/</text>
</g>
<!-- 6 -->
<g id="node11" class="node">
<title>6</title>
<polygon fill="none" stroke="black" points="360.12,-85.25 360.12,-142.75 431.62,-142.75 431.62,-85.25 360.12,-85.25"/>
<text text-anchor="start" x="368.12" y="-125.45" font-family="Times,serif" font-size="14.00">val 0.17</text>
<text text-anchor="start" x="368.12" y="-108.95" font-family="Times,serif" font-size="14.00">grad: 0.00</text>
<text text-anchor="middle" x="395.88" y="-92.45" font-family="Times,serif" font-size="14.00">op: /</text>
</g>
<!-- op_6&#45;&gt;6 -->
<g id="edge4" class="edge">
<title>op_6&#45;&gt;6</title>
<path fill="none" stroke="black" d="M323.14,-114C330.44,-114 339.36,-114 348.38,-114"/>
<polygon fill="black" stroke="black" points="348.25,-117.5 358.25,-114 348.25,-110.5 348.25,-117.5"/>
</g>
<!-- 6&#45;&gt;op_0 -->
<g id="edge11" class="edge">
<title>6&#45;&gt;op_0</title>
<path fill="none" stroke="black" d="M432,-129.02C441.04,-132.88 450.62,-136.98 459.15,-140.63"/>
<polygon fill="black" stroke="black" points="457.66,-143.8 468.23,-144.51 460.41,-137.36 457.66,-143.8"/>
</g>
<!-- 7 -->
<g id="node12" class="node">
<title>7</title>
<polygon fill="none" stroke="black" points="179.5,-98.5 179.5,-139.5 251,-139.5 251,-98.5 179.5,-98.5"/>
<text text-anchor="start" x="187.5" y="-122.2" font-family="Times,serif" font-size="14.00">val 3.00</text>
<text text-anchor="middle" x="215.25" y="-105.7" font-family="Times,serif" font-size="14.00">grad: 0.00</text>
</g>
<!-- 7&#45;&gt;op_6 -->
<g id="edge12" class="edge">
<title>7&#45;&gt;op_6</title>
<path fill="none" stroke="black" d="M251.44,-117C259.45,-116.54 267.86,-116.06 275.55,-115.62"/>
<polygon fill="black" stroke="black" points="275.58,-119.13 285.36,-115.06 275.18,-112.14 275.58,-119.13"/>
</g>
<!-- op_8 -->
<g id="node13" class="node">
<title>op_8</title>
<ellipse fill="none" stroke="black" cx="125.5" cy="-51" rx="18" ry="18"/>
<text text-anchor="middle" x="125.5" y="-45.95" font-family="Times,serif" font-size="14.00">+</text>
</g>
<!-- 8 -->
<g id="node14" class="node">
<title>8</title>
<polygon fill="none" stroke="black" points="179.5,-22.25 179.5,-79.75 251,-79.75 251,-22.25 179.5,-22.25"/>
<text text-anchor="start" x="187.5" y="-62.45" font-family="Times,serif" font-size="14.00">val 18.00</text>
<text text-anchor="start" x="187.5" y="-45.95" font-family="Times,serif" font-size="14.00">grad: 0.00</text>
<text text-anchor="middle" x="215.25" y="-29.45" font-family="Times,serif" font-size="14.00">op: +</text>
</g>
<!-- op_8&#45;&gt;8 -->
<g id="edge5" class="edge">
<title>op_8&#45;&gt;8</title>
<path fill="none" stroke="black" d="M143.84,-51C150.85,-51 159.32,-51 167.91,-51"/>
<polygon fill="black" stroke="black" points="167.65,-54.5 177.65,-51 167.65,-47.5 167.65,-54.5"/>
</g>
<!-- 8&#45;&gt;op_6 -->
<g id="edge13" class="edge">
<title>8&#45;&gt;op_6</title>
<path fill="none" stroke="black" d="M251.44,-76.26C261.38,-83.4 271.95,-90.99 280.97,-97.47"/>
<polygon fill="black" stroke="black" points="278.67,-100.13 288.84,-103.12 282.76,-94.44 278.67,-100.13"/>
</g>
<!-- 9 -->
<g id="node15" class="node">
<title>9</title>
<polygon fill="none" stroke="black" points="0,-60.5 0,-101.5 71.5,-101.5 71.5,-60.5 0,-60.5"/>
<text text-anchor="start" x="8" y="-84.2" font-family="Times,serif" font-size="14.00">val 8.00</text>
<text text-anchor="middle" x="35.75" y="-67.7" font-family="Times,serif" font-size="14.00">grad: 0.00</text>
</g>
<!-- 9&#45;&gt;op_8 -->
<g id="edge14" class="edge">
<title>9&#45;&gt;op_8</title>
<path fill="none" stroke="black" d="M71.94,-68.97C80.49,-66.05 89.51,-62.96 97.61,-60.19"/>
<polygon fill="black" stroke="black" points="98.55,-63.57 106.88,-57.02 96.28,-56.95 98.55,-63.57"/>
</g>
<!-- 10 -->
<g id="node16" class="node">
<title>10</title>
<polygon fill="none" stroke="black" points="0,-0.5 0,-41.5 71.5,-41.5 71.5,-0.5 0,-0.5"/>
<text text-anchor="start" x="8" y="-24.2" font-family="Times,serif" font-size="14.00">val 10.00</text>
<text text-anchor="middle" x="35.75" y="-7.7" font-family="Times,serif" font-size="14.00">grad: 0.00</text>
</g>
<!-- 10&#45;&gt;op_8 -->
<g id="edge15" class="edge">
<title>10&#45;&gt;op_8</title>
<path fill="none" stroke="black" d="M71.94,-33.03C80.49,-35.95 89.51,-39.04 97.61,-41.81"/>
<polygon fill="black" stroke="black" points="96.28,-45.05 106.88,-44.98 98.55,-38.43 96.28,-45.05"/>
</g>
</g>
</svg>
