<?xml version="1.0" encoding="UTF-8" standalone="no"?>
<!DOCTYPE svg PUBLIC "-//W3C//DTD SVG 1.1//EN"
 "http://www.w3.org/Graphics/SVG/1.1/DTD/svg11.dtd">
<!-- Generated by graphviz version 12.2.1 (20241206.2353)
 -->
<!-- Title: G Pages: 1 -->
<svg width="350pt" height="239pt"
 viewBox="0.00 0.00 349.50 239.00" xmlns="http://www.w3.org/2000/svg" xmlns:xlink="http://www.w3.org/1999/xlink">
<g id="graph0" class="graph" transform="scale(1 1) rotate(0) translate(4 235)">
<title>G</title>
<polygon fill="white" stroke="none" points="-4,4 -4,-235 345.5,-235 345.5,4 -4,4"/>
<!-- 0 -->
<g id="node1" class="node">
<title>0</title>
<polygon fill="none" stroke="black" points="135,-0.5 135,-58 206.5,-58 206.5,-0.5 135,-0.5"/>
<text text-anchor="start" x="143" y="-40.7" font-family="Times,serif" font-size="14.00">val 50.38</text>
<text text-anchor="start" x="143" y="-24.2" font-family="Times,serif" font-size="14.00">grad: 0.00</text>
<text text-anchor="middle" x="170.75" y="-7.7" font-family="Times,serif" font-size="14.00">op: +</text>
</g>
<!-- 1 -->
<g id="node2" class="node">
<title>1</title>
<polygon fill="none" stroke="black" points="90,-95 90,-152.5 161.5,-152.5 161.5,-95 90,-95"/>
<text text-anchor="start" x="98" y="-135.2" font-family="Times,serif" font-size="14.00">val 50.00</text>
<text text-anchor="start" x="98" y="-118.7" font-family="Times,serif" font-size="14.00">grad: 0.00</text>
<text text-anchor="middle" x="125.75" y="-102.2" font-family="Times,serif" font-size="14.00">op: *</text>
</g>
<!-- 1&#45;&#45;0 -->
<g id="edge1" class="edge">
<title>1&#45;&#45;0</title>
<path fill="none" stroke="black" d="M139.37,-94.75C144.96,-83.26 151.42,-69.99 157.02,-58.48"/>
</g>
<!-- 2 -->
<g id="node3" class="node">
<title>2</title>
<polygon fill="none" stroke="black" points="0,-189.5 0,-230.5 71.5,-230.5 71.5,-189.5 0,-189.5"/>
<text text-anchor="start" x="8" y="-213.2" font-family="Times,serif" font-size="14.00">val 5.00</text>
<text text-anchor="middle" x="35.75" y="-196.7" font-family="Times,serif" font-size="14.00">grad: 0.00</text>
</g>
<!-- 2&#45;&#45;1 -->
<g id="edge2" class="edge">
<title>2&#45;&#45;1</title>
<path fill="none" stroke="black" d="M57.08,-189.03C68.62,-178.23 83.06,-164.71 95.72,-152.86"/>
</g>
<!-- 3 -->
<g id="node4" class="node">
<title>3</title>
<polygon fill="none" stroke="black" points="90,-189.5 90,-230.5 161.5,-230.5 161.5,-189.5 90,-189.5"/>
<text text-anchor="start" x="98" y="-213.2" font-family="Times,serif" font-size="14.00">val 10.00</text>
<text text-anchor="middle" x="125.75" y="-196.7" font-family="Times,serif" font-size="14.00">grad: 0.00</text>
</g>
<!-- 3&#45;&#45;1 -->
<g id="edge3" class="edge">
<title>3&#45;&#45;1</title>
<path fill="none" stroke="black" d="M125.75,-189.03C125.75,-178.23 125.75,-164.71 125.75,-152.86"/>
</g>
<!-- 4 -->
<g id="node5" class="node">
<title>4</title>
<polygon fill="none" stroke="black" points="180,-95 180,-152.5 251.5,-152.5 251.5,-95 180,-95"/>
<text text-anchor="start" x="188" y="-135.2" font-family="Times,serif" font-size="14.00">val 0.38</text>
<text text-anchor="start" x="188" y="-118.7" font-family="Times,serif" font-size="14.00">grad: 0.00</text>
<text text-anchor="middle" x="215.75" y="-102.2" font-family="Times,serif" font-size="14.00">op: /</text>
</g>
<!-- 4&#45;&#45;0 -->
<g id="edge4" class="edge">
<title>4&#45;&#45;0</title>
<path fill="none" stroke="black" d="M202.13,-94.75C196.54,-83.26 190.08,-69.99 184.48,-58.48"/>
</g>
<!-- 5 -->
<g id="node6" class="node">
<title>5</title>
<polygon fill="none" stroke="black" points="180,-189.5 180,-230.5 251.5,-230.5 251.5,-189.5 180,-189.5"/>
<text text-anchor="start" x="188" y="-213.2" font-family="Times,serif" font-size="14.00">val 3.00</text>
<text text-anchor="middle" x="215.75" y="-196.7" font-family="Times,serif" font-size="14.00">grad: 0.00</text>
</g>
<!-- 5&#45;&#45;4 -->
<g id="edge5" class="edge">
<title>5&#45;&#45;4</title>
<path fill="none" stroke="black" d="M215.75,-189.03C215.75,-178.23 215.75,-164.71 215.75,-152.86"/>
</g>
<!-- 6 -->
<g id="node7" class="node">
<title>6</title>
<polygon fill="none" stroke="black" points="270,-189.5 270,-230.5 341.5,-230.5 341.5,-189.5 270,-189.5"/>
<text text-anchor="start" x="278" y="-213.2" font-family="Times,serif" font-size="14.00">val 8.00</text>
<text text-anchor="middle" x="305.75" y="-196.7" font-family="Times,serif" font-size="14.00">grad: 0.00</text>
</g>
<!-- 6&#45;&#45;4 -->
<g id="edge6" class="edge">
<title>6&#45;&#45;4</title>
<path fill="none" stroke="black" d="M284.42,-189.03C272.88,-178.23 258.44,-164.71 245.78,-152.86"/>
</g>
</g>
</svg>
