<?xml version="1.0" encoding="UTF-8" standalone="no"?>
<!DOCTYPE svg PUBLIC "-//W3C//DTD SVG 1.1//EN"
 "http://www.w3.org/Graphics/SVG/1.1/DTD/svg11.dtd">
<!-- Generated by graphviz version 12.2.1 (20241206.2353)
 -->
<!-- Title: G Pages: 1 -->
<svg width="690pt" height="314pt"
 viewBox="0.00 0.00 690.00 314.00" xmlns="http://www.w3.org/2000/svg" xmlns:xlink="http://www.w3.org/1999/xlink">
<g id="graph0" class="graph" transform="scale(1 1) rotate(0) translate(4 310)">
<title>G</title>
<polygon fill="white" stroke="none" points="-4,4 -4,-310 686,-310 686,4 -4,4"/>
<!-- op_0 -->
<g id="node1" class="node">
<title>op_0</title>
<ellipse fill="none" stroke="black" cx="540.75" cy="-152" rx="18" ry="18"/>
<text text-anchor="middle" x="540.75" y="-146.95" font-family="Times,serif" font-size="14.00">+</text>
</g>
<!-- 0 -->
<g id="node2" class="node">
<title>0</title>
<polygon fill="none" stroke="black" points="594.75,-123.25 594.75,-180.75 682,-180.75 682,-123.25 594.75,-123.25"/>
<text text-anchor="start" x="602.75" y="-163.45" font-family="Times,serif" font-size="14.00">val 100.1667</text>
<text text-anchor="start" x="602.75" y="-146.95" font-family="Times,serif" font-size="14.00">grad: 1.0000</text>
<text text-anchor="middle" x="638.38" y="-130.45" font-family="Times,serif" font-size="14.00">op: +</text>
</g>
<!-- op_0&#45;&gt;0 -->
<g id="edge1" class="edge">
<title>op_0&#45;&gt;0</title>
<path fill="none" stroke="black" d="M558.85,-152C565.87,-152 574.43,-152 583.28,-152"/>
<polygon fill="black" stroke="black" points="583.05,-155.5 593.05,-152 583.05,-148.5 583.05,-155.5"/>
</g>
<!-- op_1 -->
<g id="node3" class="node">
<title>op_1</title>
<ellipse fill="none" stroke="black" cx="345.5" cy="-191" rx="18" ry="18"/>
<text text-anchor="middle" x="345.5" y="-185.95" font-family="Times,serif" font-size="14.00">*</text>
</g>
<!-- 1 -->
<g id="node4" class="node">
<title>1</title>
<polygon fill="none" stroke="black" points="399.5,-162.25 399.5,-219.75 486.75,-219.75 486.75,-162.25 399.5,-162.25"/>
<text text-anchor="start" x="407.5" y="-202.45" font-family="Times,serif" font-size="14.00">val 100.0000</text>
<text text-anchor="start" x="407.5" y="-185.95" font-family="Times,serif" font-size="14.00">grad: 1.0000</text>
<text text-anchor="middle" x="443.12" y="-169.45" font-family="Times,serif" font-size="14.00">op: *</text>
</g>
<!-- op_1&#45;&gt;1 -->
<g id="edge2" class="edge">
<title>op_1&#45;&gt;1</title>
<path fill="none" stroke="black" d="M363.6,-191C370.62,-191 379.18,-191 388.03,-191"/>
<polygon fill="black" stroke="black" points="387.8,-194.5 397.8,-191 387.8,-187.5 387.8,-194.5"/>
</g>
<!-- 1&#45;&gt;op_0 -->
<g id="edge6" class="edge">
<title>1&#45;&gt;op_0</title>
<path fill="none" stroke="black" d="M487.18,-173.44C496.08,-169.81 505.19,-166.09 513.28,-162.79"/>
<polygon fill="black" stroke="black" points="514.57,-166.05 522.51,-159.03 511.93,-159.57 514.57,-166.05"/>
</g>
<!-- op_2 -->
<g id="node5" class="node">
<title>op_2</title>
<ellipse fill="none" stroke="black" cx="145.75" cy="-255" rx="18" ry="18"/>
<text text-anchor="middle" x="145.75" y="-249.95" font-family="Times,serif" font-size="14.00">+</text>
</g>
<!-- 2 -->
<g id="node6" class="node">
<title>2</title>
<polygon fill="none" stroke="black" points="199.75,-226.25 199.75,-283.75 291.5,-283.75 291.5,-226.25 199.75,-226.25"/>
<text text-anchor="start" x="207.75" y="-266.45" font-family="Times,serif" font-size="14.00">val 10.0000</text>
<text text-anchor="start" x="207.75" y="-249.95" font-family="Times,serif" font-size="14.00">grad: 10.0000</text>
<text text-anchor="middle" x="245.62" y="-233.45" font-family="Times,serif" font-size="14.00">op: +</text>
</g>
<!-- op_2&#45;&gt;2 -->
<g id="edge3" class="edge">
<title>op_2&#45;&gt;2</title>
<path fill="none" stroke="black" d="M164.25,-255C171.13,-255 179.45,-255 188.09,-255"/>
<polygon fill="black" stroke="black" points="188.04,-258.5 198.04,-255 188.04,-251.5 188.04,-258.5"/>
</g>
<!-- 2&#45;&gt;op_1 -->
<g id="edge7" class="edge">
<title>2&#45;&gt;op_1</title>
<path fill="none" stroke="black" d="M291.27,-225.81C301.27,-219.27 311.51,-212.57 320.31,-206.82"/>
<polygon fill="black" stroke="black" points="322.14,-209.8 328.6,-201.4 318.31,-203.94 322.14,-209.8"/>
</g>
<!-- 3 -->
<g id="node7" class="node">
<title>3</title>
<polygon fill="none" stroke="black" points="0,-264.5 0,-305.5 91.75,-305.5 91.75,-264.5 0,-264.5"/>
<text text-anchor="start" x="8" y="-288.2" font-family="Times,serif" font-size="14.00">val 5.0000</text>
<text text-anchor="middle" x="45.88" y="-271.7" font-family="Times,serif" font-size="14.00">grad: 10.0000</text>
</g>
<!-- 3&#45;&gt;op_2 -->
<g id="edge8" class="edge">
<title>3&#45;&gt;op_2</title>
<path fill="none" stroke="black" d="M92.09,-271.14C100.6,-268.53 109.27,-265.88 117.05,-263.49"/>
<polygon fill="black" stroke="black" points="118.05,-266.84 126.59,-260.57 116,-260.15 118.05,-266.84"/>
</g>
<!-- 4 -->
<g id="node8" class="node">
<title>4</title>
<polygon fill="none" stroke="black" points="0,-204.5 0,-245.5 91.75,-245.5 91.75,-204.5 0,-204.5"/>
<text text-anchor="start" x="8" y="-228.2" font-family="Times,serif" font-size="14.00">val 5.0000</text>
<text text-anchor="middle" x="45.88" y="-211.7" font-family="Times,serif" font-size="14.00">grad: 10.0000</text>
</g>
<!-- 4&#45;&gt;op_2 -->
<g id="edge9" class="edge">
<title>4&#45;&gt;op_2</title>
<path fill="none" stroke="black" d="M92.09,-238.86C100.6,-241.47 109.27,-244.12 117.05,-246.51"/>
<polygon fill="black" stroke="black" points="116,-249.85 126.59,-249.43 118.05,-243.16 116,-249.85"/>
</g>
<!-- 5 -->
<g id="node9" class="node">
<title>5</title>
<polygon fill="none" stroke="black" points="199.75,-166.5 199.75,-207.5 291.5,-207.5 291.5,-166.5 199.75,-166.5"/>
<text text-anchor="start" x="207.75" y="-190.2" font-family="Times,serif" font-size="14.00">val 10.0000</text>
<text text-anchor="middle" x="245.62" y="-173.7" font-family="Times,serif" font-size="14.00">grad: 10.0000</text>
</g>
<!-- 5&#45;&gt;op_1 -->
<g id="edge10" class="edge">
<title>5&#45;&gt;op_1</title>
<path fill="none" stroke="black" d="M291.84,-188.85C300.02,-189.18 308.35,-189.52 315.89,-189.83"/>
<polygon fill="black" stroke="black" points="315.67,-193.32 325.8,-190.24 315.96,-186.33 315.67,-193.32"/>
</g>
<!-- op_6 -->
<g id="node10" class="node">
<title>op_6</title>
<ellipse fill="none" stroke="black" cx="345.5" cy="-114" rx="18" ry="18"/>
<text text-anchor="middle" x="345.5" y="-108.95" font-family="Times,serif" font-size="14.00">/</text>
</g>
<!-- 6 -->
<g id="node11" class="node">
<title>6</title>
<polygon fill="none" stroke="black" points="400.62,-85.25 400.62,-142.75 485.62,-142.75 485.62,-85.25 400.62,-85.25"/>
<text text-anchor="start" x="408.62" y="-125.45" font-family="Times,serif" font-size="14.00">val 0.1667</text>
<text text-anchor="start" x="408.62" y="-108.95" font-family="Times,serif" font-size="14.00">grad: 1.0000</text>
<text text-anchor="middle" x="443.12" y="-92.45" font-family="Times,serif" font-size="14.00">op: /</text>
</g>
<!-- op_6&#45;&gt;6 -->
<g id="edge4" class="edge">
<title>op_6&#45;&gt;6</title>
<path fill="none" stroke="black" d="M363.6,-114C370.93,-114 379.93,-114 389.2,-114"/>
<polygon fill="black" stroke="black" points="389.02,-117.5 399.02,-114 389.02,-110.5 389.02,-117.5"/>
</g>
<!-- 6&#45;&gt;op_0 -->
<g id="edge11" class="edge">
<title>6&#45;&gt;op_0</title>
<path fill="none" stroke="black" d="M486.07,-130.67C495.18,-134.29 504.57,-138.02 512.91,-141.33"/>
<polygon fill="black" stroke="black" points="511.5,-144.54 522.08,-144.98 514.08,-138.03 511.5,-144.54"/>
</g>
<!-- 7 -->
<g id="node12" class="node">
<title>7</title>
<polygon fill="none" stroke="black" points="203.12,-98.5 203.12,-139.5 288.12,-139.5 288.12,-98.5 203.12,-98.5"/>
<text text-anchor="start" x="211.12" y="-122.2" font-family="Times,serif" font-size="14.00">val 3.0000</text>
<text text-anchor="middle" x="245.62" y="-105.7" font-family="Times,serif" font-size="14.00">grad: 0.0556</text>
</g>
<!-- 7&#45;&gt;op_6 -->
<g id="edge12" class="edge">
<title>7&#45;&gt;op_6</title>
<path fill="none" stroke="black" d="M288.42,-116.87C297.74,-116.39 307.42,-115.89 316.05,-115.45"/>
<polygon fill="black" stroke="black" points="316.11,-118.96 325.92,-114.95 315.75,-111.96 316.11,-118.96"/>
</g>
<!-- op_8 -->
<g id="node13" class="node">
<title>op_8</title>
<ellipse fill="none" stroke="black" cx="145.75" cy="-51" rx="18" ry="18"/>
<text text-anchor="middle" x="145.75" y="-45.95" font-family="Times,serif" font-size="14.00">+</text>
</g>
<!-- 8 -->
<g id="node14" class="node">
<title>8</title>
<polygon fill="none" stroke="black" points="200.88,-22.25 200.88,-79.75 290.38,-79.75 290.38,-22.25 200.88,-22.25"/>
<text text-anchor="start" x="208.88" y="-62.45" font-family="Times,serif" font-size="14.00">val 18.0000</text>
<text text-anchor="start" x="208.88" y="-45.95" font-family="Times,serif" font-size="14.00">grad: &#45;0.0093</text>
<text text-anchor="middle" x="245.62" y="-29.45" font-family="Times,serif" font-size="14.00">op: +</text>
</g>
<!-- op_8&#45;&gt;8 -->
<g id="edge5" class="edge">
<title>op_8&#45;&gt;8</title>
<path fill="none" stroke="black" d="M164.25,-51C171.36,-51 180.01,-51 188.97,-51"/>
<polygon fill="black" stroke="black" points="188.87,-54.5 198.87,-51 188.87,-47.5 188.87,-54.5"/>
</g>
<!-- 8&#45;&gt;op_6 -->
<g id="edge13" class="edge">
<title>8&#45;&gt;op_6</title>
<path fill="none" stroke="black" d="M290.7,-79.37C300.76,-85.85 311.1,-92.5 320,-98.23"/>
<polygon fill="black" stroke="black" points="318.09,-101.17 328.4,-103.63 321.88,-95.28 318.09,-101.17"/>
</g>
<!-- 9 -->
<g id="node15" class="node">
<title>9</title>
<polygon fill="none" stroke="black" points="1.12,-60.5 1.12,-101.5 90.62,-101.5 90.62,-60.5 1.12,-60.5"/>
<text text-anchor="start" x="9.12" y="-84.2" font-family="Times,serif" font-size="14.00">val 8.0000</text>
<text text-anchor="middle" x="45.88" y="-67.7" font-family="Times,serif" font-size="14.00">grad: &#45;0.0093</text>
</g>
<!-- 9&#45;&gt;op_8 -->
<g id="edge14" class="edge">
<title>9&#45;&gt;op_8</title>
<path fill="none" stroke="black" d="M90.95,-67.49C99.91,-64.74 109.1,-61.93 117.29,-59.42"/>
<polygon fill="black" stroke="black" points="118.08,-62.83 126.62,-56.56 116.03,-56.14 118.08,-62.83"/>
</g>
<!-- 10 -->
<g id="node16" class="node">
<title>10</title>
<polygon fill="none" stroke="black" points="1.12,-0.5 1.12,-41.5 90.62,-41.5 90.62,-0.5 1.12,-0.5"/>
<text text-anchor="start" x="9.12" y="-24.2" font-family="Times,serif" font-size="14.00">val 10.0000</text>
<text text-anchor="middle" x="45.88" y="-7.7" font-family="Times,serif" font-size="14.00">grad: &#45;0.0093</text>
</g>
<!-- 10&#45;&gt;op_8 -->
<g id="edge15" class="edge">
<title>10&#45;&gt;op_8</title>
<path fill="none" stroke="black" d="M90.95,-34.51C99.91,-37.26 109.1,-40.07 117.29,-42.58"/>
<polygon fill="black" stroke="black" points="116.03,-45.86 126.62,-45.44 118.08,-39.17 116.03,-45.86"/>
</g>
</g>
</svg>
