<?xml version="1.0" encoding="UTF-8" standalone="no"?>
<!DOCTYPE svg PUBLIC "-//W3C//DTD SVG 1.1//EN"
 "http://www.w3.org/Graphics/SVG/1.1/DTD/svg11.dtd">
<!-- Generated by graphviz version 12.2.1 (20241206.2353)
 -->
<!-- Title: G Pages: 1 -->
<svg width="439pt" height="238pt"
 viewBox="0.00 0.00 438.50 238.00" xmlns="http://www.w3.org/2000/svg" xmlns:xlink="http://www.w3.org/1999/xlink">
<g id="graph0" class="graph" transform="scale(1 1) rotate(0) translate(4 234)">
<title>G</title>
<polygon fill="white" stroke="none" points="-4,4 -4,-234 434.5,-234 434.5,4 -4,4"/>
<!-- op_0 -->
<g id="node1" class="node">
<title>op_0</title>
<ellipse fill="none" stroke="black" cx="305" cy="-114" rx="18" ry="18"/>
<text text-anchor="middle" x="305" y="-108.95" font-family="Times,serif" font-size="14.00">+</text>
</g>
<!-- 0 -->
<g id="node2" class="node">
<title>0</title>
<polygon fill="none" stroke="black" points="359,-85.25 359,-142.75 430.5,-142.75 430.5,-85.25 359,-85.25"/>
<text text-anchor="start" x="367" y="-125.45" font-family="Times,serif" font-size="14.00">val 50.38</text>
<text text-anchor="start" x="367" y="-108.95" font-family="Times,serif" font-size="14.00">grad: 0.00</text>
<text text-anchor="middle" x="394.75" y="-92.45" font-family="Times,serif" font-size="14.00">op: +</text>
</g>
<!-- op_0&#45;&gt;0 -->
<g id="edge1" class="edge">
<title>op_0&#45;&gt;0</title>
<path fill="none" stroke="black" d="M323.34,-114C330.35,-114 338.82,-114 347.41,-114"/>
<polygon fill="black" stroke="black" points="347.15,-117.5 357.15,-114 347.15,-110.5 347.15,-117.5"/>
</g>
<!-- op_1 -->
<g id="node3" class="node">
<title>op_1</title>
<ellipse fill="none" stroke="black" cx="125.5" cy="-153" rx="18" ry="18"/>
<text text-anchor="middle" x="125.5" y="-147.95" font-family="Times,serif" font-size="14.00">*</text>
</g>
<!-- 1 -->
<g id="node4" class="node">
<title>1</title>
<polygon fill="none" stroke="black" points="179.5,-124.25 179.5,-181.75 251,-181.75 251,-124.25 179.5,-124.25"/>
<text text-anchor="start" x="187.5" y="-164.45" font-family="Times,serif" font-size="14.00">val 50.00</text>
<text text-anchor="start" x="187.5" y="-147.95" font-family="Times,serif" font-size="14.00">grad: 0.00</text>
<text text-anchor="middle" x="215.25" y="-131.45" font-family="Times,serif" font-size="14.00">op: *</text>
</g>
<!-- op_1&#45;&gt;1 -->
<g id="edge2" class="edge">
<title>op_1&#45;&gt;1</title>
<path fill="none" stroke="black" d="M143.84,-153C150.85,-153 159.32,-153 167.91,-153"/>
<polygon fill="black" stroke="black" points="167.65,-156.5 177.65,-153 167.65,-149.5 167.65,-156.5"/>
</g>
<!-- 1&#45;&gt;op_0 -->
<g id="edge4" class="edge">
<title>1&#45;&gt;op_0</title>
<path fill="none" stroke="black" d="M251.44,-137.36C260.22,-133.46 269.49,-129.34 277.76,-125.66"/>
<polygon fill="black" stroke="black" points="279.17,-128.87 286.89,-121.61 276.33,-122.47 279.17,-128.87"/>
</g>
<!-- 2 -->
<g id="node5" class="node">
<title>2</title>
<polygon fill="none" stroke="black" points="0,-188.5 0,-229.5 71.5,-229.5 71.5,-188.5 0,-188.5"/>
<text text-anchor="start" x="8" y="-212.2" font-family="Times,serif" font-size="14.00">val 5.00</text>
<text text-anchor="middle" x="35.75" y="-195.7" font-family="Times,serif" font-size="14.00">grad: 0.00</text>
</g>
<!-- 2&#45;&gt;op_1 -->
<g id="edge5" class="edge">
<title>2&#45;&gt;op_1</title>
<path fill="none" stroke="black" d="M69.42,-188.15C79.59,-181.66 90.61,-174.63 100.1,-168.57"/>
<polygon fill="black" stroke="black" points="101.87,-171.59 108.42,-163.26 98.11,-165.69 101.87,-171.59"/>
</g>
<!-- 3 -->
<g id="node6" class="node">
<title>3</title>
<polygon fill="none" stroke="black" points="0,-128.5 0,-169.5 71.5,-169.5 71.5,-128.5 0,-128.5"/>
<text text-anchor="start" x="8" y="-152.2" font-family="Times,serif" font-size="14.00">val 10.00</text>
<text text-anchor="middle" x="35.75" y="-135.7" font-family="Times,serif" font-size="14.00">grad: 0.00</text>
</g>
<!-- 3&#45;&gt;op_1 -->
<g id="edge6" class="edge">
<title>3&#45;&gt;op_1</title>
<path fill="none" stroke="black" d="M71.94,-150.6C79.95,-150.97 88.36,-151.35 96.05,-151.7"/>
<polygon fill="black" stroke="black" points="95.71,-155.19 105.86,-152.15 96.03,-148.2 95.71,-155.19"/>
</g>
<!-- op_4 -->
<g id="node7" class="node">
<title>op_4</title>
<ellipse fill="none" stroke="black" cx="125.5" cy="-76" rx="18" ry="18"/>
<text text-anchor="middle" x="125.5" y="-70.95" font-family="Times,serif" font-size="14.00">/</text>
</g>
<!-- 4 -->
<g id="node8" class="node">
<title>4</title>
<polygon fill="none" stroke="black" points="179.5,-47.25 179.5,-104.75 251,-104.75 251,-47.25 179.5,-47.25"/>
<text text-anchor="start" x="187.5" y="-87.45" font-family="Times,serif" font-size="14.00">val 0.38</text>
<text text-anchor="start" x="187.5" y="-70.95" font-family="Times,serif" font-size="14.00">grad: 0.00</text>
<text text-anchor="middle" x="215.25" y="-54.45" font-family="Times,serif" font-size="14.00">op: /</text>
</g>
<!-- op_4&#45;&gt;4 -->
<g id="edge3" class="edge">
<title>op_4&#45;&gt;4</title>
<path fill="none" stroke="black" d="M143.84,-76C150.85,-76 159.32,-76 167.91,-76"/>
<polygon fill="black" stroke="black" points="167.65,-79.5 177.65,-76 167.65,-72.5 167.65,-79.5"/>
</g>
<!-- 4&#45;&gt;op_0 -->
<g id="edge7" class="edge">
<title>4&#45;&gt;op_0</title>
<path fill="none" stroke="black" d="M251.44,-91.24C260.22,-95.04 269.49,-99.06 277.76,-102.64"/>
<polygon fill="black" stroke="black" points="276.31,-105.82 286.88,-106.59 279.1,-99.4 276.31,-105.82"/>
</g>
<!-- 5 -->
<g id="node9" class="node">
<title>5</title>
<polygon fill="none" stroke="black" points="0,-60.5 0,-101.5 71.5,-101.5 71.5,-60.5 0,-60.5"/>
<text text-anchor="start" x="8" y="-84.2" font-family="Times,serif" font-size="14.00">val 3.00</text>
<text text-anchor="middle" x="35.75" y="-67.7" font-family="Times,serif" font-size="14.00">grad: 0.00</text>
</g>
<!-- 5&#45;&gt;op_4 -->
<g id="edge8" class="edge">
<title>5&#45;&gt;op_4</title>
<path fill="none" stroke="black" d="M71.94,-79C79.95,-78.54 88.36,-78.06 96.05,-77.62"/>
<polygon fill="black" stroke="black" points="96.08,-81.13 105.86,-77.06 95.68,-74.14 96.08,-81.13"/>
</g>
<!-- 6 -->
<g id="node10" class="node">
<title>6</title>
<polygon fill="none" stroke="black" points="0,-0.5 0,-41.5 71.5,-41.5 71.5,-0.5 0,-0.5"/>
<text text-anchor="start" x="8" y="-24.2" font-family="Times,serif" font-size="14.00">val 8.00</text>
<text text-anchor="middle" x="35.75" y="-7.7" font-family="Times,serif" font-size="14.00">grad: 0.00</text>
</g>
<!-- 6&#45;&gt;op_4 -->
<g id="edge9" class="edge">
<title>6&#45;&gt;op_4</title>
<path fill="none" stroke="black" d="M69.92,-41.79C80.05,-48.14 90.98,-54.99 100.38,-60.88"/>
<polygon fill="black" stroke="black" points="98.26,-63.68 108.59,-66.03 101.97,-57.75 98.26,-63.68"/>
</g>
</g>
</svg>
